# xmcd
#
# Track frame offsets:
#	150
#	17265
#	36787
#	50890
#	71362
#	85865
#	107570
#	124620
#	143762
#	161530
#	180647
#	198392
#
# Disc length: 2909 seconds
#
# Revision: 1
# Processed by: cddbd v1.5PL3 Copyright (c) Steve Scherf et al.
# Submitted via: audiograbber 1.82.01
#
DISCID=970b5b0c
DTITLE=The Stabel Singers - Soul-Disco Christmas
DYEAR=1996
DGENRE=Jazz
TTITLE0=The Stables Singers - God Rest Ye Merry Gentelmen
TTITLE1=The Stables Singers - The First Noel
TTITLE2=The Stables Singers - O Come All Ye Faithfull
TTITLE3=The Stables Singers - Ding Dong Merrily On High
TTITLE4=The Stables Singers - Once in Royal David's City
TTITLE5=The Stables Singers - Silent Night
TTITLE6=The Stables Singers - While Sheperd's Watched
TTITLE7=The Stables Singers - O little Town Of Bethlehem (1st Part)
TTITLE8=The Stables Singers - O little Town Of Bethlehem (conclusion)
TTITLE9=The Stables Singers - We Three Kings
TTITLE10=The Stables Singers - Away In a Manger
TTITLE11=The Stables Singers - Hark The Herald Angel Sing
EXTD=
EXTT0=
EXTT1=
EXTT2=
EXTT3=
EXTT4=
EXTT5=
EXTT6=
EXTT7=
EXTT8=
EXTT9=
EXTT10=
EXTT11=
PLAYORDER=
